<svg version="1.1" xmlns="http://www.w3.org/2000/svg" viewBox="-2692.6152880003647 -1085.2 11599.815288000364 2649.872033691406"><desc>Created with Snap</desc><defs></defs><g><g transform="matrix(22.7873,0,0,22.7873,-2465.1707,-898.2028)"><path d="M95,83.1h-4.5v-4.7c0-0.8-0.7-1.5-1.5-1.5h-0.8V43.1H89c0.8,0,1.5-0.7,1.5-1.5v-4.7H95c0.7,0,1.3-0.4,1.4-1.1  c0.2-0.6-0.1-1.3-0.6-1.7l-45-28.6c-0.5-0.3-1.1-0.3-1.6,0l-45,28.6c-0.6,0.4-0.8,1-0.6,1.7c0.2,0.6,0.8,1.1,1.4,1.1h4.5v4.7  c0,0.8,0.7,1.5,1.5,1.5h0.8v33.7H11c-0.8,0-1.5,0.7-1.5,1.5v4.7H5c-0.8,0-1.5,0.7-1.5,1.5v8.6c0,0.8,0.7,1.5,1.5,1.5h90  c0.8,0,1.5-0.7,1.5-1.5v-8.6C96.5,83.7,95.8,83.1,95,83.1z M68.6,83.1v-4.7c0-0.8-0.7-1.5-1.5-1.5h-0.8V43.1h0.8  c0.8,0,1.5-0.7,1.5-1.5v-4.7h6.8v4.7c0,0.8,0.7,1.5,1.5,1.5h0.8v33.7h-0.8c-0.8,0-1.5,0.7-1.5,1.5v4.7H68.6z M46.6,83.1v-4.7  c0-0.8-0.7-1.5-1.5-1.5h-0.8V43.1h0.8c0.8,0,1.5-0.7,1.5-1.5v-4.7h6.8v4.7c0,0.8,0.7,1.5,1.5,1.5h0.8v33.7h-0.8  c-0.8,0-1.5,0.7-1.5,1.5v4.7H46.6z M24.7,83.1v-4.7c0-0.8-0.7-1.5-1.5-1.5h-0.8V43.1h0.8c0.8,0,1.5-0.7,1.5-1.5v-4.7h6.8v4.7  c0,0.8,0.7,1.5,1.5,1.5h0.8v33.7h-0.8c-0.8,0-1.5,0.7-1.5,1.5v4.7H24.7z M41.3,76.9h-4.6V43.1h4.6V76.9z M43.6,40.1h-0.8h-7.6h-0.8  v-3.2h9.2V40.1z M34.4,79.9h0.8h7.6h0.8v3.2h-9.2V79.9z M63.3,76.9h-4.6V43.1h4.6V76.9z M65.6,40.1h-0.8h-7.6h-0.8v-3.2h9.2V40.1z   M56.4,79.9h0.8h7.6h0.8v3.2h-9.2V79.9z M78.3,79.9h0.8h7.6h0.8v3.2h-9.2V79.9z M85.2,76.9h-4.6V43.1h4.6V76.9z M87.5,40.1h-0.8  h-7.6h-0.8v-3.2h9.2V40.1z M50,8.6l39.8,25.4H10.2L50,8.6z M21.7,36.9v3.2h-0.8h-7.6h-0.8v-3.2H21.7z M14.8,43.1h4.6v33.7h-4.6V43.1  z M12.5,79.9h0.8h7.6h0.8v3.2h-9.2V79.9z M93.5,91.7h-87v-5.6h87V91.7z" fill="#069C54" style=""></path><desc>Created with Snap</desc><defs></defs></g><g><g transform="matrix(0.5,0,0,-0.5,0,0)"><path d="M733 -16Q718 -16 703 -15Q688 -14 674 -12Q730 -27 797 -55Q865 -82 937 -115Q1009 -148 1082 -182Q1156 -216 1223 -244Q1291 -272 1349 -290Q1407 -307 1450 -307Q1488 -307 1514 -299Q1541 -290 1557 -278Q1574 -265 1582 -250Q1591 -234 1593 -219L1624 -225Q1619 -282 1601 -334Q1584 -386 1552 -426Q1520 -465 1473 -489Q1426 -512 1362 -512Q1308 -512 1235 -486Q1162 -460 1079 -422Q997 -383 910 -338Q824 -293 742 -255Q661 -216 590 -190Q519 -164 467 -164Q406 -164 383 -215L352 -205Q353 -193 359 -174Q365 -154 376 -132Q388 -109 406 -86Q424 -63 448 -45Q473 -26 505 -14Q538 -1 580 0Q475 23 384 79Q293 135 226 226Q159 318 120 445Q82 573 82 739Q82 934 134 1076Q187 1219 276 1312Q365 1405 483 1450Q602 1495 733 1495Q864 1495 982 1450Q1100 1405 1189 1312Q1279 1219 1331 1076Q1384 934 1384 739Q1384 544 1331 401Q1279 259 1189 166Q1100 74 982 29Q864 -16 733 -16ZM733 1415Q709 1415 677 1407Q646 1400 612 1375Q579 1351 546 1306Q513 1261 487 1186Q462 1111 446 1001Q430 892 430 739Q430 587 446 478Q462 370 487 296Q513 223 546 179Q579 136 612 113Q646 91 677 84Q709 78 733 78Q756 78 788 84Q820 91 853 113Q887 136 920 179Q953 223 978 296Q1004 370 1020 478Q1036 586 1036 739Q1036 892 1020 1001Q1004 1111 978 1186Q953 1261 920 1306Q887 1351 853 1375Q820 1400 788 1407Q756 1415 733 1415ZM2465 893L2465 174Q2465 165 2466 154Q2467 144 2471 134Q2475 125 2483 119Q2491 113 2506 113Q2525 113 2540 126Q2555 140 2568 154L2592 133Q2577 112 2554 86Q2532 61 2500 38Q2468 15 2427 -1Q2386 -16 2334 -16Q2290 -16 2257 -5Q2225 7 2202 26Q2180 46 2169 72Q2158 99 2158 129L2158 174Q2108 120 2053 79Q2029 61 2002 44Q1975 27 1946 13Q1917 0 1886 -8Q1855 -16 1824 -16Q1764 -16 1721 5Q1679 27 1653 62Q1627 97 1615 141Q1603 185 1603 229L1603 848Q1603 857 1602 867Q1601 878 1597 887Q1593 897 1585 903Q1577 909 1562 909Q1544 909 1528 895Q1513 882 1501 868L1476 889Q1491 910 1513 935Q1536 961 1568 984Q1600 1007 1641 1022Q1683 1038 1734 1038Q1778 1038 1811 1026Q1844 1015 1866 995Q1888 976 1899 949Q1910 923 1910 893L1910 225Q1910 211 1914 196Q1919 182 1927 170Q1936 158 1949 150Q1962 143 1980 143Q2009 143 2038 158Q2067 173 2091 193Q2115 214 2132 234Q2150 254 2158 264L2158 848Q2158 857 2157 867Q2156 878 2152 887Q2148 897 2140 903Q2132 909 2117 909Q2099 909 2083 895Q2068 882 2056 868L2031 889Q2046 910 2068 935Q2091 961 2123 984Q2155 1007 2196 1022Q2238 1038 2289 1038Q2333 1038 2366 1026Q2399 1015 2421 995Q2443 976 2454 949Q2465 923 2465 893ZM3047 872L3047 90Q3047 77 3042 58Q3038 40 3021 23Q3005 7 2974 -5Q2943 -16 2890 -16Q2837 -16 2807 -4Q2777 9 2762 26Q2747 43 2743 61Q2740 79 2740 90L2740 862Q2740 891 2726 912Q2713 934 2681 934Q2664 934 2652 928Q2640 922 2626 911L2605 936Q2628 955 2656 973Q2685 992 2718 1006Q2751 1020 2789 1029Q2827 1038 2869 1038Q2934 1038 2970 1020Q3006 1003 3023 977Q3040 952 3043 923Q3047 894 3047 872ZM2709 1266Q2709 1294 2721 1319Q2734 1345 2756 1364Q2779 1383 2808 1394Q2838 1405 2873 1405Q2907 1405 2936 1394Q2966 1383 2988 1364Q3010 1345 3022 1319Q3035 1294 3035 1266Q3035 1237 3022 1212Q3010 1187 2988 1168Q2966 1150 2936 1139Q2907 1128 2873 1128Q2838 1128 2808 1139Q2779 1150 2756 1168Q2734 1187 2721 1212Q2709 1237 2709 1266ZM3934 692Q3903 692 3882 701Q3861 711 3848 727Q3835 743 3829 762Q3823 782 3823 803Q3823 830 3826 855Q3830 880 3827 900Q3825 920 3812 932Q3799 944 3766 944Q3731 944 3692 924Q3653 904 3621 861Q3589 818 3568 750Q3547 683 3547 588Q3547 483 3566 396Q3586 310 3625 249Q3664 188 3722 154Q3780 121 3858 121Q3893 121 3924 129Q3956 137 3984 151Q4012 165 4037 183Q4063 202 4087 223L4112 199Q4089 168 4053 131Q4017 94 3966 61Q3915 29 3847 7Q3779 -14 3692 -14Q3605 -14 3522 19Q3440 53 3376 117Q3312 181 3273 272Q3235 364 3235 481Q3235 572 3258 648Q3281 725 3320 787Q3360 849 3412 896Q3465 943 3523 974Q3581 1006 3641 1022Q3702 1038 3758 1038Q3832 1038 3887 1021Q3942 1004 3978 976Q4015 948 4033 911Q4051 875 4051 836Q4051 807 4043 780Q4036 754 4021 734Q4007 715 3985 703Q3963 692 3934 692ZM4556 1391L4556 766Q4591 813 4631 861Q4671 910 4717 949Q4763 988 4817 1013Q4871 1038 4935 1038Q4992 1038 5030 1015Q5068 993 5091 961Q5115 930 5124 896Q5134 862 5134 838Q5134 794 5122 746Q5111 699 5083 652Q5056 606 5010 562Q4964 519 4894 483Q4988 284 5077 140Q5166 -3 5248 -96Q5331 -188 5407 -232Q5483 -276 5552 -276Q5564 -276 5576 -273Q5588 -270 5598 -266Q5609 -262 5621 -256L5640 -291Q5613 -306 5585 -320Q5557 -333 5521 -343Q5485 -353 5438 -359Q5391 -365 5326 -365Q5267 -365 5209 -351Q5152 -337 5094 -301Q5036 -265 4976 -205Q4917 -145 4854 -53Q4792 39 4726 166Q4660 293 4589 463Q4685 534 4740 594Q4795 655 4823 704Q4851 753 4858 791Q4865 829 4865 856Q4865 860 4864 869Q4863 879 4857 888Q4852 897 4841 904Q4831 911 4812 911Q4775 911 4737 879Q4699 848 4664 801Q4630 755 4602 701Q4574 648 4556 604L4556 88Q4556 75 4551 57Q4547 39 4530 23Q4514 7 4482 -5Q4451 -16 4398 -16Q4345 -16 4315 -4Q4285 9 4270 26Q4256 43 4252 61Q4249 79 4249 90L4249 1380Q4249 1409 4235 1430Q4222 1452 4190 1452Q4173 1452 4160 1446Q4148 1441 4134 1430L4114 1454Q4137 1473 4165 1491Q4193 1510 4226 1524Q4260 1538 4298 1547Q4336 1556 4378 1556Q4443 1556 4479 1538Q4515 1521 4532 1495Q4549 1470 4552 1441Q4556 1413 4556 1391ZM5977 1409Q5950 1409 5914 1398Q5878 1387 5840 1356Q5803 1326 5767 1271Q5731 1216 5702 1128Q5674 1041 5656 916Q5639 791 5639 621Q5639 459 5656 340Q5674 221 5703 137Q5733 54 5771 1Q5809 -52 5851 -82Q5893 -111 5935 -122Q5977 -133 6014 -133Q6053 -133 6093 -123Q6133 -113 6171 -94Q6210 -75 6245 -48Q6281 -21 6311 14L6356 -31Q6326 -68 6284 -107Q6242 -145 6186 -177Q6131 -208 6062 -228Q5993 -248 5909 -248Q5778 -248 5665 -198Q5553 -148 5469 -43Q5386 63 5338 228Q5291 393 5291 623Q5291 839 5341 1002Q5391 1165 5477 1274Q5563 1384 5679 1439Q5795 1495 5926 1495Q6013 1495 6084 1478Q6156 1462 6208 1430Q6260 1399 6288 1352Q6317 1306 6317 1247Q6317 1220 6308 1190Q6299 1161 6280 1136Q6262 1112 6235 1096Q6208 1081 6172 1081Q6140 1081 6122 1095Q6105 1109 6096 1132Q6088 1155 6085 1184Q6083 1214 6082 1245Q6081 1276 6077 1305Q6074 1335 6063 1358Q6053 1381 6033 1395Q6013 1409 5977 1409ZM6900 274L6900 518Q6900 543 6884 556Q6868 569 6843 569Q6808 569 6776 553Q6745 537 6721 506Q6697 475 6683 429Q6669 384 6669 324Q6669 266 6677 228Q6686 190 6700 167Q6715 145 6734 136Q6753 127 6774 127Q6800 127 6823 140Q6846 154 6863 175Q6880 196 6890 222Q6900 248 6900 274ZM6741 956Q6707 956 6678 948Q6649 940 6628 928Q6607 916 6595 901Q6583 887 6583 874Q6583 859 6598 852Q6614 846 6633 837Q6652 829 6667 813Q6683 798 6683 766Q6683 745 6674 727Q6666 710 6651 696Q6637 683 6617 675Q6598 668 6577 668Q6521 668 6486 706Q6452 744 6452 807Q6452 868 6484 911Q6516 955 6567 983Q6619 1011 6684 1024Q6749 1038 6814 1038Q6892 1038 6963 1021Q7034 1004 7088 967Q7143 930 7175 873Q7208 816 7208 735L7208 170Q7208 161 7209 150Q7210 139 7214 130Q7218 121 7226 115Q7234 109 7249 109Q7267 109 7282 122Q7298 136 7310 150L7335 129Q7320 108 7299 83Q7278 58 7248 36Q7218 14 7178 -1Q7138 -16 7087 -16Q7024 -16 6975 21Q6926 59 6911 137Q6879 94 6844 65Q6810 36 6774 18Q6738 0 6701 -8Q6665 -16 6628 -16Q6580 -16 6535 -1Q6490 14 6454 46Q6419 79 6397 131Q6376 183 6376 258Q6376 349 6412 407Q6448 465 6506 504Q6565 544 6639 572Q6714 600 6792 631Q6850 654 6876 699Q6903 745 6903 793Q6903 867 6859 911Q6816 956 6741 956ZM7791 958Q7768 958 7747 952Q7727 946 7711 932Q7695 919 7686 898Q7677 878 7677 850Q7677 811 7705 772Q7734 734 7776 692Q7819 651 7868 606Q7918 562 7960 512Q8003 463 8031 407Q8060 351 8060 287Q8060 215 8035 159Q8011 103 7965 64Q7920 25 7855 4Q7791 -16 7712 -16Q7643 -16 7587 3Q7531 23 7487 51Q7444 80 7413 112Q7382 144 7365 170L7400 195Q7413 180 7433 162Q7453 145 7477 130Q7502 115 7530 105Q7558 96 7587 96Q7659 96 7705 130Q7751 165 7751 233Q7751 271 7726 311Q7701 352 7663 395Q7625 438 7581 484Q7537 530 7499 579Q7461 628 7436 680Q7411 732 7411 788Q7411 851 7436 898Q7462 945 7504 976Q7547 1007 7601 1022Q7656 1038 7714 1038Q7781 1038 7836 1026Q7891 1014 7930 989Q7970 965 7991 928Q8013 891 8013 842Q8013 804 7988 776Q7963 748 7918 748Q7875 748 7852 766Q7830 785 7830 817Q7830 838 7840 850Q7851 862 7864 869Q7877 877 7887 882Q7898 888 7898 897Q7898 925 7868 941Q7838 958 7791 958ZM8555 1391L8555 848Q8592 901 8639 943Q8658 961 8681 978Q8705 995 8731 1008Q8758 1022 8787 1030Q8817 1038 8848 1038Q8915 1038 8968 1012Q9021 986 9057 925Q9093 864 9112 763Q9131 663 9131 514Q9131 369 9105 262Q9079 155 9037 80Q8995 5 8942 -43Q8889 -90 8835 -117Q8781 -144 8731 -155Q8681 -165 8645 -166L8635 -125Q8680 -114 8715 -84Q8750 -54 8774 14Q8798 83 8810 199Q8823 315 8823 498Q8823 624 8811 699Q8800 775 8781 814Q8763 854 8739 866Q8716 879 8692 879Q8663 879 8641 863Q8619 848 8602 828Q8586 808 8574 788Q8563 768 8555 758L8555 90Q8555 77 8551 58Q8547 40 8531 23Q8516 7 8485 -5Q8455 -16 8402 -16Q8349 -16 8318 -4Q8287 9 8271 26Q8256 43 8252 61Q8248 79 8248 90L8248 1380Q8248 1409 8234 1430Q8221 1452 8189 1452Q8172 1452 8159 1446Q8147 1441 8133 1430L8113 1454Q8136 1473 8164 1491Q8192 1510 8225 1524Q8259 1538 8297 1547Q8335 1556 8377 1556Q8442 1556 8478 1538Q8514 1521 8531 1495Q8548 1470 8551 1441Q8555 1413 8555 1391ZM10516 1311L10516 178Q10516 155 10520 134Q10525 114 10538 99Q10552 84 10575 75Q10599 66 10637 66Q10692 66 10738 97Q10784 129 10817 178Q10850 228 10868 289Q10886 351 10886 412Q10886 503 10861 572Q10837 642 10793 690Q10749 738 10689 764Q10629 791 10559 795L10579 846Q10623 844 10663 858Q10703 872 10733 907Q10764 942 10782 1001Q10800 1061 10800 1151Q10800 1212 10785 1261Q10770 1310 10745 1343Q10721 1377 10688 1395Q10656 1413 10622 1413Q10601 1413 10581 1408Q10562 1403 10547 1391Q10533 1379 10524 1359Q10516 1340 10516 1311ZM10536 1495Q10826 1495 10962 1404Q11099 1314 11099 1141Q11099 1098 11089 1062Q11080 1026 11065 996Q11050 967 11031 944Q11012 921 10992 904Q10945 863 10886 840L10886 825Q10979 814 11053 769Q11084 750 11114 721Q11144 693 11167 652Q11191 612 11205 558Q11220 505 11220 436Q11220 331 11182 247Q11144 163 11069 104Q10994 46 10882 15Q10770 -16 10622 -16Q10485 -16 10399 1Q10313 18 10265 50Q10217 83 10199 129Q10182 175 10182 233L10182 1327Q10182 1382 10106 1382Q10051 1382 9994 1365Q9938 1349 9892 1320Q9847 1292 9818 1252Q9789 1213 9789 1167Q9789 1135 9797 1116Q9806 1097 9817 1087Q9828 1078 9839 1075Q9851 1073 9856 1073Q9881 1073 9897 1081Q9913 1090 9926 1099Q9939 1109 9950 1117Q9962 1126 9977 1126Q9989 1126 10002 1120Q10016 1115 10027 1103Q10039 1091 10047 1071Q10055 1052 10055 1024Q10055 984 10039 955Q10024 926 9999 906Q9975 887 9943 877Q9912 868 9881 868Q9833 868 9794 884Q9756 901 9729 930Q9702 959 9688 998Q9674 1037 9674 1081Q9674 1164 9705 1227Q9736 1291 9792 1337Q9849 1383 9928 1413Q10007 1444 10103 1462Q10199 1480 10308 1487Q10418 1495 10536 1495ZM11857 274L11857 518Q11857 543 11841 556Q11825 569 11800 569Q11765 569 11733 553Q11702 537 11678 506Q11654 475 11640 429Q11626 384 11626 324Q11626 266 11634 228Q11643 190 11657 167Q11672 145 11691 136Q11710 127 11731 127Q11757 127 11780 140Q11803 154 11820 175Q11837 196 11847 222Q11857 248 11857 274ZM11698 956Q11664 956 11635 948Q11606 940 11585 928Q11564 916 11552 901Q11540 887 11540 874Q11540 859 11555 852Q11571 846 11590 837Q11609 829 11624 813Q11640 798 11640 766Q11640 745 11631 727Q11623 710 11608 696Q11594 683 11574 675Q11555 668 11534 668Q11478 668 11443 706Q11409 744 11409 807Q11409 868 11441 911Q11473 955 11524 983Q11576 1011 11641 1024Q11706 1038 11771 1038Q11849 1038 11920 1021Q11991 1004 12045 967Q12100 930 12132 873Q12165 816 12165 735L12165 170Q12165 161 12166 150Q12167 139 12171 130Q12175 121 12183 115Q12191 109 12206 109Q12224 109 12239 122Q12255 136 12267 150L12292 129Q12277 108 12256 83Q12235 58 12205 36Q12175 14 12135 -1Q12095 -16 12044 -16Q11981 -16 11932 21Q11883 59 11868 137Q11836 94 11801 65Q11767 36 11731 18Q11695 0 11658 -8Q11622 -16 11585 -16Q11537 -16 11492 -1Q11447 14 11411 46Q11376 79 11354 131Q11333 183 11333 258Q11333 349 11369 407Q11405 465 11463 504Q11522 544 11596 572Q11671 600 11749 631Q11807 654 11833 699Q11860 745 11860 793Q11860 867 11816 911Q11773 956 11698 956ZM13015 498Q13015 624 13003 699Q12992 775 12973 814Q12954 854 12931 866Q12908 879 12884 879Q12855 879 12832 863Q12810 848 12793 828Q12777 808 12765 788Q12754 768 12746 758L12746 90Q12746 77 12742 58Q12738 40 12722 23Q12707 7 12676 -5Q12646 -16 12593 -16Q12540 -16 12509 -4Q12479 9 12463 26Q12447 43 12443 61Q12439 79 12439 90L12439 862Q12439 891 12425 912Q12412 934 12380 934Q12363 934 12351 928Q12339 922 12325 911L12304 936Q12327 955 12355 973Q12384 992 12417 1006Q12450 1020 12488 1029Q12526 1038 12568 1038Q12633 1038 12669 1016Q12705 995 12722 965Q12739 935 12742 902Q12746 870 12746 848Q12783 901 12830 943Q12849 961 12872 978Q12896 995 12922 1008Q12949 1022 12978 1030Q13008 1038 13039 1038Q13107 1038 13159 1012Q13212 986 13248 925Q13284 864 13303 763Q13322 663 13322 514Q13322 369 13296 262Q13270 155 13228 80Q13186 5 13133 -43Q13080 -90 13026 -117Q12972 -144 12922 -155Q12873 -165 12837 -166L12826 -125Q12856 -118 12881 -103Q12907 -88 12928 -59Q12949 -30 12965 14Q12981 59 12992 126Q13004 193 13009 284Q13015 376 13015 498ZM13838 1391L13838 766Q13873 813 13913 861Q13953 910 13999 949Q14045 988 14099 1013Q14153 1038 14217 1038Q14274 1038 14312 1015Q14350 993 14373 961Q14397 930 14406 896Q14416 862 14416 838Q14416 794 14404 746Q14393 699 14365 652Q14338 606 14292 562Q14246 519 14176 483Q14270 284 14359 140Q14448 -3 14530 -96Q14613 -188 14689 -232Q14765 -276 14834 -276Q14846 -276 14858 -273Q14870 -270 14880 -266Q14891 -262 14903 -256L14922 -291Q14895 -306 14867 -320Q14839 -333 14803 -343Q14767 -353 14720 -359Q14673 -365 14608 -365Q14549 -365 14491 -351Q14434 -337 14376 -301Q14318 -265 14258 -205Q14199 -145 14136 -53Q14074 39 14008 166Q13942 293 13871 463Q13967 534 14022 594Q14077 655 14105 704Q14133 753 14140 791Q14147 829 14147 856Q14147 860 14146 869Q14145 879 14139 888Q14134 897 14123 904Q14113 911 14094 911Q14057 911 14019 879Q13981 848 13946 801Q13912 755 13884 701Q13856 648 13838 604L13838 88Q13838 75 13833 57Q13829 39 13812 23Q13796 7 13764 -5Q13733 -16 13680 -16Q13627 -16 13597 -4Q13567 9 13552 26Q13538 43 13534 61Q13531 79 13531 90L13531 1380Q13531 1409 13517 1430Q13504 1452 13472 1452Q13455 1452 13442 1446Q13430 1441 13416 1430L13396 1454Q13419 1473 13447 1491Q13475 1510 13508 1524Q13542 1538 13580 1547Q13618 1556 13660 1556Q13725 1556 13761 1538Q13797 1521 13814 1495Q13831 1470 13834 1441Q13838 1413 13838 1391ZM14935 872L14935 90Q14935 77 14930 58Q14926 40 14909 23Q14893 7 14862 -5Q14831 -16 14778 -16Q14725 -16 14695 -4Q14665 9 14650 26Q14635 43 14631 61Q14628 79 14628 90L14628 862Q14628 891 14614 912Q14601 934 14569 934Q14552 934 14540 928Q14528 922 14514 911L14493 936Q14516 955 14544 973Q14573 992 14606 1006Q14639 1020 14677 1029Q14715 1038 14757 1038Q14822 1038 14858 1020Q14894 1003 14911 977Q14928 952 14931 923Q14935 894 14935 872ZM14597 1266Q14597 1294 14609 1319Q14622 1345 14644 1364Q14667 1383 14696 1394Q14726 1405 14761 1405Q14795 1405 14824 1394Q14854 1383 14876 1364Q14898 1345 14910 1319Q14923 1294 14923 1266Q14923 1237 14910 1212Q14898 1187 14876 1168Q14854 1150 14824 1139Q14795 1128 14761 1128Q14726 1128 14696 1139Q14667 1150 14644 1168Q14622 1187 14609 1212Q14597 1237 14597 1266ZM15775 498Q15775 624 15763 699Q15752 775 15733 814Q15714 854 15691 866Q15668 879 15644 879Q15615 879 15592 863Q15570 848 15553 828Q15537 808 15525 788Q15514 768 15506 758L15506 90Q15506 77 15502 58Q15498 40 15482 23Q15467 7 15436 -5Q15406 -16 15353 -16Q15300 -16 15269 -4Q15239 9 15223 26Q15207 43 15203 61Q15199 79 15199 90L15199 862Q15199 891 15185 912Q15172 934 15140 934Q15123 934 15111 928Q15099 922 15085 911L15064 936Q15087 955 15115 973Q15144 992 15177 1006Q15210 1020 15248 1029Q15286 1038 15328 1038Q15393 1038 15429 1016Q15465 995 15482 965Q15499 935 15502 902Q15506 870 15506 848Q15543 901 15590 943Q15609 961 15632 978Q15656 995 15682 1008Q15709 1022 15738 1030Q15768 1038 15799 1038Q15867 1038 15919 1012Q15972 986 16008 925Q16044 864 16063 763Q16082 663 16082 514Q16082 369 16056 262Q16030 155 15988 80Q15946 5 15893 -43Q15840 -90 15786 -117Q15732 -144 15682 -155Q15633 -165 15597 -166L15586 -125Q15616 -118 15641 -103Q15667 -88 15688 -59Q15709 -30 15725 14Q15741 59 15752 126Q15764 193 15769 284Q15775 376 15775 498ZM16246 629Q16246 731 16281 807Q16317 884 16377 935Q16437 987 16516 1012Q16595 1038 16682 1038Q16769 1038 16847 1015Q16925 992 16985 944Q17004 973 17016 1005Q17028 1037 17028 1069Q17028 1111 17005 1136Q16983 1161 16948 1161L16948 1190Q16970 1197 16987 1202Q17004 1208 17018 1211Q17032 1214 17046 1215Q17060 1217 17077 1217Q17124 1217 17149 1188Q17174 1159 17174 1108Q17174 1078 17160 1048Q17146 1019 17125 992Q17104 965 17078 941Q17053 917 17030 899Q17072 851 17095 787Q17118 723 17118 641Q17118 538 17082 459Q17047 380 16987 326Q16927 272 16848 244Q16769 217 16682 217Q16631 217 16582 226Q16533 235 16490 252Q16474 240 16462 222Q16451 204 16451 182Q16451 145 16483 127Q16515 109 16568 101Q16621 93 16688 91Q16755 89 16825 84Q16896 80 16963 67Q17030 55 17083 26Q17136 -2 17168 -51Q17200 -100 17200 -178Q17200 -235 17176 -281Q17152 -326 17111 -361Q17071 -395 17017 -420Q16964 -444 16904 -460Q16845 -475 16783 -482Q16722 -489 16666 -489Q16564 -489 16482 -479Q16401 -468 16344 -446Q16287 -424 16256 -389Q16225 -354 16225 -305Q16225 -270 16241 -241Q16257 -211 16283 -187Q16310 -162 16343 -143Q16376 -123 16410 -106Q16360 -85 16326 -43Q16293 0 16293 70Q16293 107 16306 138Q16319 170 16339 196Q16360 223 16384 244Q16409 266 16432 281Q16391 305 16356 339Q16322 374 16297 417Q16273 461 16259 514Q16246 567 16246 629ZM16817 637Q16817 695 16811 750Q16805 805 16790 848Q16775 891 16749 917Q16723 944 16682 944Q16641 944 16615 916Q16589 889 16574 844Q16559 800 16553 743Q16547 687 16547 629Q16547 570 16553 513Q16559 456 16574 411Q16589 366 16615 338Q16641 311 16682 311Q16723 311 16749 340Q16775 369 16790 415Q16805 462 16811 520Q16817 578 16817 637ZM16969 -258Q16969 -226 16944 -206Q16919 -185 16878 -173Q16838 -160 16786 -154Q16735 -147 16682 -144Q16629 -140 16579 -137Q16529 -134 16492 -129Q16471 -144 16451 -162Q16432 -179 16417 -199Q16403 -218 16394 -240Q16385 -261 16385 -283Q16385 -321 16407 -347Q16429 -372 16466 -387Q16504 -402 16553 -408Q16603 -414 16658 -414Q16731 -414 16789 -402Q16847 -389 16887 -368Q16927 -346 16948 -318Q16969 -290 16969 -258Z" fill="#069C54" style=""></path></g></g><g transform="matrix(0.75,0,0,0.75,22.568,1094.656)"><g transform="matrix(1.024,0,0,-1.024,0,0)"><path d="M473 398L382 398L362 252L447 252L447 208L356 208L327 0L277 0L306 208L161 208L132 0L82 0L111 208L24 208L24 252L117 252L137 398L50 398L50 441L143 441L173 660L223 660L193 441L338 441L368 660L418 660L388 441L473 441L473 398ZM312 252L332 398L187 398L167 252L312 252ZM831 479Q919 479 965 419Q1012 360 1012 244Q1012 113 956 50Q900 -12 802 -12Q727 -12 666 35L658 35L628 0L597 0L597 595Q597 624 590 632Q584 641 562 641L531 641L531 671L654 692L682 692L682 430L684 430Q746 479 831 479ZM790 20Q853 20 885 70Q918 121 918 230Q918 438 796 438Q763 438 735 424Q708 410 682 387L682 70Q730 20 790 20ZM1532 41L1539 16Q1520 4 1500 -3Q1480 -10 1448 -10Q1418 -10 1402 2Q1387 14 1384 54Q1347 22 1312 5Q1277 -11 1234 -11Q1179 -11 1144 14Q1110 40 1110 89Q1110 159 1181 211Q1252 263 1384 284L1384 342Q1384 393 1363 418Q1343 443 1293 443Q1258 443 1230 430Q1202 417 1202 404Q1202 397 1211 389Q1221 382 1226 374Q1232 367 1232 352Q1232 331 1220 318Q1208 306 1186 306Q1163 306 1149 320Q1136 334 1136 359Q1136 390 1156 417Q1177 444 1218 461Q1260 478 1320 478Q1396 478 1432 447Q1468 416 1468 339L1468 102Q1468 63 1476 48Q1485 34 1504 34Q1516 34 1532 41ZM1200 113Q1200 78 1220 60Q1240 43 1278 43Q1306 43 1331 55Q1357 67 1384 87L1384 252Q1291 232 1245 198Q1200 165 1200 113ZM2035 83Q2035 58 2039 47Q2043 37 2057 33Q2071 29 2104 29L2104 0L1885 0L1885 29Q1917 29 1930 32Q1943 36 1947 46Q1951 56 1951 81L1951 324Q1951 372 1928 401Q1906 431 1858 431Q1819 431 1792 412Q1765 394 1740 360L1740 81Q1740 56 1744 45Q1748 35 1761 32Q1774 29 1805 29L1805 0L1586 0L1586 29Q1619 29 1633 33Q1647 37 1650 47Q1654 57 1654 83L1654 381Q1654 407 1648 415Q1642 424 1625 424L1591 424L1591 454L1709 474L1737 474L1737 400L1738 400Q1772 440 1811 459Q1850 479 1900 479Q2035 479 2035 335L2035 83ZM2643 29L2653 29L2653 0L2459 0L2459 29L2474 29Q2498 29 2498 40Q2498 47 2478 76L2363 231L2325 190L2325 83Q2325 58 2329 47Q2333 37 2347 33Q2361 29 2393 29L2393 0L2171 0L2171 29Q2204 29 2218 33Q2232 37 2236 47Q2240 58 2240 83L2240 599Q2240 625 2234 633Q2228 642 2210 642L2176 642L2176 672L2297 692L2325 692L2325 231L2464 384Q2488 411 2488 425Q2488 439 2469 439L2450 439L2450 468L2632 468L2632 439L2618 439Q2579 439 2549 420Q2519 401 2482 360L2417 289L2551 110Q2587 61 2605 45Q2624 29 2643 29ZM2798 562Q2774 562 2758 577Q2743 593 2743 616Q2743 640 2758 656Q2774 672 2798 672Q2823 672 2838 656Q2853 640 2853 616Q2853 593 2837 577Q2822 562 2798 562ZM2690 0L2690 29Q2723 29 2737 33Q2751 37 2754 47Q2758 57 2758 83L2758 381Q2758 407 2752 415Q2747 424 2729 424L2695 424L2695 454L2816 474L2844 474L2844 83Q2844 57 2848 46Q2852 36 2865 32Q2879 29 2912 29L2912 0L2690 0ZM3436 83Q3436 58 3440 47Q3444 37 3458 33Q3472 29 3505 29L3505 0L3286 0L3286 29Q3318 29 3331 32Q3344 36 3348 46Q3352 56 3352 81L3352 324Q3352 372 3329 401Q3307 431 3259 431Q3220 431 3193 412Q3166 394 3141 360L3141 81Q3141 56 3145 45Q3149 35 3162 32Q3175 29 3206 29L3206 0L2987 0L2987 29Q3020 29 3034 33Q3048 37 3051 47Q3055 57 3055 83L3055 381Q3055 407 3049 415Q3043 424 3026 424L2992 424L2992 454L3110 474L3138 474L3138 400L3139 400Q3173 440 3212 459Q3251 479 3301 479Q3436 479 3436 335L3436 83ZM4010 479Q4042 479 4062 461Q4083 443 4083 415Q4083 394 4072 381Q4061 368 4042 368Q4024 368 4013 378Q4002 388 4002 402Q4002 409 4004 416Q4006 423 4006 427Q4006 433 4000 438Q3994 443 3985 443Q3967 443 3944 412Q3971 375 3971 322Q3971 242 3916 204Q3862 167 3782 167Q3746 167 3715 174Q3667 148 3667 118Q3667 100 3687 88Q3708 76 3757 76L3829 76Q3923 76 3966 44Q4010 12 4010 -51Q4010 -132 3945 -172Q3880 -212 3778 -212Q3687 -212 3630 -181Q3574 -150 3574 -88Q3574 -54 3594 -31Q3614 -7 3660 11Q3630 21 3613 41Q3596 62 3596 87Q3596 114 3618 139Q3640 164 3682 185Q3593 223 3593 321Q3593 401 3649 440Q3706 479 3784 479Q3826 479 3863 467Q3900 456 3926 433Q3961 479 4010 479ZM3780 199Q3836 199 3859 231Q3883 263 3883 327Q3883 384 3860 415Q3838 446 3785 446Q3731 446 3708 413Q3685 381 3685 320Q3685 263 3706 231Q3728 199 3780 199ZM3807 3L3713 3Q3680 -10 3666 -33Q3653 -55 3653 -80Q3653 -126 3690 -154Q3728 -181 3790 -181Q3855 -181 3895 -153Q3935 -124 3935 -72Q3935 -33 3906 -15Q3877 3 3807 3ZM4119 -114L4119 -70L4586 -70L4586 -114L4119 -114ZM5355 83Q5355 58 5359 47Q5363 36 5377 32Q5391 29 5424 29L5424 0L5205 0L5205 29Q5237 29 5250 32Q5263 36 5267 46Q5271 56 5271 81L5271 324Q5271 373 5251 402Q5231 431 5186 431Q5151 431 5124 411Q5097 392 5073 358L5073 83Q5073 58 5077 47Q5081 37 5094 33Q5108 29 5139 29L5139 0L4923 0L4923 29Q4955 29 4968 32Q4981 36 4985 46Q4989 56 4989 81L4989 324Q4989 373 4969 402Q4949 431 4904 431Q4841 431 4791 361L4791 81Q4791 56 4795 45Q4799 35 4812 32Q4825 29 4856 29L4856 0L4637 0L4637 29Q4670 29 4684 33Q4698 37 4701 47Q4705 57 4705 83L4705 381Q4705 407 4699 415Q4693 424 4676 424L4642 424L4642 454L4760 474L4788 474L4788 402L4789 402Q4855 479 4947 479Q4997 479 5028 457Q5059 435 5069 398Q5131 479 5229 479Q5293 479 5324 443Q5355 408 5355 335L5355 83ZM5929 41L5936 16Q5917 4 5897 -3Q5877 -10 5845 -10Q5815 -10 5799 2Q5784 14 5781 54Q5744 22 5709 5Q5674 -11 5631 -11Q5576 -11 5541 14Q5507 40 5507 89Q5507 159 5578 211Q5649 263 5781 284L5781 342Q5781 393 5760 418Q5740 443 5690 443Q5655 443 5627 430Q5599 417 5599 404Q5599 397 5608 389Q5618 382 5623 374Q5629 367 5629 352Q5629 331 5617 318Q5605 306 5583 306Q5560 306 5546 320Q5533 334 5533 359Q5533 390 5553 417Q5574 444 5615 461Q5657 478 5717 478Q5793 478 5829 447Q5865 416 5865 339L5865 102Q5865 63 5873 48Q5882 34 5901 34Q5913 34 5929 41ZM5597 113Q5597 78 5617 60Q5637 43 5675 43Q5703 43 5728 55Q5754 67 5781 87L5781 252Q5688 232 5642 198Q5597 165 5597 113ZM6450 29L6476 29L6476 0L6336 0L6329 48Q6297 22 6261 5Q6225 -12 6176 -12Q6088 -12 6041 49Q5995 110 5995 226Q5995 355 6051 417Q6107 479 6207 479Q6272 479 6323 440L6323 444L6326 444L6326 596Q6326 623 6320 632Q6314 641 6296 641L6260 641L6260 670L6383 692L6410 692L6410 76Q6410 48 6418 38Q6427 29 6450 29ZM6089 238Q6089 30 6211 30Q6244 30 6270 45Q6296 60 6326 87L6326 397Q6277 448 6218 448Q6154 448 6121 398Q6089 348 6089 238ZM6956 239L6956 230L6638 230Q6640 137 6671 83Q6703 29 6783 29Q6841 29 6875 59Q6909 89 6925 136L6953 124Q6932 63 6888 26Q6844 -11 6757 -11Q6650 -11 6597 51Q6545 113 6545 229Q6545 348 6599 413Q6653 479 6758 479Q6956 479 6956 239ZM6638 262L6863 262Q6863 357 6840 402Q6817 448 6759 448Q6700 448 6671 401Q6642 355 6638 262ZM7017 -114L7017 -70L7484 -70L7484 -114L7017 -114ZM7959 239L7959 230L7641 230Q7643 137 7674 83Q7706 29 7786 29Q7844 29 7878 59Q7912 89 7928 136L7956 124Q7935 63 7891 26Q7847 -11 7760 -11Q7653 -11 7600 51Q7548 113 7548 229Q7548 348 7602 413Q7656 479 7761 479Q7959 479 7959 239ZM7641 262L7866 262Q7866 357 7843 402Q7820 448 7762 448Q7703 448 7674 401Q7645 355 7641 262ZM8477 41L8484 16Q8465 4 8445 -3Q8425 -10 8393 -10Q8363 -10 8347 2Q8332 14 8329 54Q8292 22 8257 5Q8222 -11 8179 -11Q8124 -11 8089 14Q8055 40 8055 89Q8055 159 8126 211Q8197 263 8329 284L8329 342Q8329 393 8308 418Q8288 443 8238 443Q8203 443 8175 430Q8147 417 8147 404Q8147 397 8156 389Q8166 382 8171 374Q8177 367 8177 352Q8177 331 8165 318Q8153 306 8131 306Q8108 306 8094 320Q8081 334 8081 359Q8081 390 8101 417Q8122 444 8163 461Q8205 478 8265 478Q8341 478 8377 447Q8413 416 8413 339L8413 102Q8413 63 8421 48Q8430 34 8449 34Q8461 34 8477 41ZM8145 113Q8145 78 8165 60Q8185 43 8223 43Q8251 43 8276 55Q8302 67 8329 87L8329 252Q8236 232 8190 198Q8145 165 8145 113ZM8722 -11Q8694 -11 8674 -6Q8655 -1 8635 7Q8612 16 8600 16Q8590 16 8584 11Q8579 7 8574 -3L8555 -3L8545 162L8565 162Q8584 92 8623 56Q8662 21 8716 21Q8760 21 8786 42Q8813 64 8813 103Q8813 131 8798 149Q8783 168 8762 179Q8741 190 8700 206L8675 215Q8614 240 8585 267Q8557 295 8557 343Q8557 406 8601 442Q8646 479 8719 479Q8743 479 8758 476Q8773 473 8792 467Q8812 461 8818 461Q8828 461 8832 465Q8836 470 8837 474Q8839 478 8839 479L8857 479L8864 332L8844 332Q8817 448 8724 448Q8683 448 8656 428Q8630 408 8630 376Q8630 344 8655 322Q8681 301 8717 288L8744 279Q8819 253 8854 221Q8890 189 8890 134Q8890 69 8843 29Q8796 -11 8722 -11ZM9242 468L9412 468L9412 439Q9386 439 9373 435Q9361 431 9354 421Q9347 411 9338 388L9156 -82Q9137 -131 9124 -156Q9112 -180 9092 -196Q9072 -211 9039 -211Q9001 -211 8977 -191Q8954 -170 8954 -140Q8954 -116 8969 -100Q8984 -84 9005 -84Q9023 -84 9036 -96Q9050 -107 9050 -127Q9050 -140 9043 -151Q9036 -162 9036 -168Q9036 -180 9053 -180Q9073 -180 9086 -163Q9099 -146 9117 -96L9150 -8L8995 392Q8984 422 8971 430Q8959 439 8925 439L8925 468L9135 468L9135 439L9101 439Q9079 439 9079 422Q9079 415 9082 406L9190 103L9191 103L9303 405Q9306 414 9306 421Q9306 439 9283 439L9242 439L9242 468Z" fill="#069C54" style=""></path></g></g></g></svg>